<svg xmlns:xlink="http://www.w3.org/1999/xlink" xmlns:ev="http://www.w3.org/2001/xml-events" height="804" xmlns="http://www.w3.org/2000/svg" viewBox="0 0 1132 804" width="1132"><defs/><g transform="translate(5.5,5.5)" id="page1"><rect fill="#ffffff" height="794" y="0" width="1123" x="0"/><g transform="translate(108.415748,147.417018)" id="group1"><g transform="matrix(1.000000,-0.000000,0.000000,1.000000,7.559051,498.866963)" id="shape2"><path fill="#7e7e7e" d="M-7.6,.0L900.5,.0L900.5,-7.6L900.5,-15.1L7.6,-15.1L.0,-7.6L-7.6,.0z" fill-rule="nonzero"/><path stroke-width="1" stroke="#7e7e7e" fill="none" d="M-7.6,.0L900.5,.0M900.5,-15.1L7.6,-15.1M900.5,.0L900.5,-7.6L900.5,-15.1"/></g><g transform="matrix(0.000000,1.000000,-1.000000,0.000000,0.000000,223.979112)" id="shape3"><path fill="#7e7e7e" d="M-7.6,.0L274.9,.0L267.3,-7.6L259.8,-15.1L7.6,-15.1L.0,-7.6L-7.6,.0z" fill-rule="nonzero"/><path stroke-width="1" stroke="#7e7e7e" fill="none" d="M-7.6,.0L274.9,-0.0M259.8,-15.1L7.6,-15.1"/></g><g transform="matrix(0.999995,0.003256,-0.003256,0.999995,172.334120,15.142437)" id="shape4"><path fill="#7e7e7e" d="M.0,.0L744.8,.0L744.8,-7.6L744.8,-15.1L.0,-15.1L.0,-7.6L.0,.0z" fill-rule="nonzero"/><path stroke-width="1" stroke="#7e7e7e" fill="none" d="M.0,.0L744.8,.0M744.8,-15.1L.0,-15.1M.0,.0L.0,-7.6L.0,-15.1M744.8,.0L744.8,-7.6L744.8,-15.1"/></g><g transform="matrix(1.000000,0.000000,-0.000000,1.000000,615.882051,231.388662)" id="shape5"><path fill="#7e7e7e" d="M-0.0,.0L292.1,.0L292.1,-7.6L292.1,-15.1L-0.0,-15.1L.0,-7.6L-0.0,.0z" fill-rule="nonzero"/><path stroke-width="1" stroke="#7e7e7e" fill="none" d="M-0.0,.0L292.1,.0M292.1,-15.1L-0.0,-15.1M292.1,.0L292.1,-7.6L292.1,-15.1"/></g><g transform="matrix(0.000000,1.000000,-1.000000,0.000000,436.283577,8.467503)" id="shape6"><path fill="#7e7e7e" d="M.0,.0L207.6,.0L215.1,-7.6L207.6,-15.1L.0,-15.1L.0,-7.6L.0,.0z" fill-rule="nonzero"/><path stroke-width="1" stroke="#7e7e7e" fill="none" d="M.0,.0L207.6,.0M207.6,-15.1L.0,-15.1M.0,.0L.0,-7.6L.0,-15.1"/></g><g transform="matrix(0.999999,-0.001319,0.001319,0.999999,166.892027,231.538156)" id="shape7"><path fill="#7e7e7e" d="M.0,.0L277.0,.0L277.0,-7.6L269.4,-15.1L10.7,-15.1L3.0,-7.6L.0,-7.6L.0,.0z" fill-rule="nonzero"/><path stroke-width="1" stroke="#7e7e7e" fill="none" d="M.0,.0L277.0,.0M269.4,-15.1L.0,-15.1"/></g><g transform="matrix(-0.011353,0.999936,-0.999936,-0.011353,164.800173,7.497612)" id="shape8"><path fill="#7e7e7e" d="M.0,.0L216.4,.0L216.4,-7.6L208.8,-15.1L.0,-15.1L.0,-7.6L.0,.0z" fill-rule="nonzero"/><path stroke-width="1" stroke="#7e7e7e" fill="none" d="M.0,.0L216.4,.0M208.8,-15.1L.0,-15.1M.0,.0L.0,-7.6L.0,-15.1"/></g><g transform="translate(7.559050,231.538162)" id="shape9"><path fill="#7e7e7e" d="M7.6,.0L159.3,.0L159.3,-7.6L159.3,-15.1L-7.6,-15.1L.0,-7.6L7.6,.0z" fill-rule="nonzero"/><path stroke-width="1" stroke="#7e7e7e" fill="none" d="M7.6,.0L159.3,.0M159.3,-15.1L-7.6,-15.1"/></g><g transform="matrix(0.999999,0.001255,-0.001255,0.999999,443.833141,231.172755)" id="shape10"><path fill="#7e7e7e" d="M.0,.0L172.0,.0L172.0,-7.6L172.0,-15.1L7.5,-15.1L.0,-7.6L.0,.0z" fill-rule="nonzero"/><path stroke-width="1" stroke="#7e7e7e" fill="none" d="M.0,.0L172.0,.0M172.0,-15.1L7.5,-15.1"/></g><g transform="matrix(0.000000,1.000000,-1.000000,0.000000,904.706898,2.582982)" id="shape11"><path fill="#7e7e7e" d="M.0,.0L505.8,.0L505.8,-7.6L505.8,-15.1L.0,-15.1L.0,-7.6L.0,.0z" fill-rule="nonzero"/><path stroke-width="1" stroke="#7e7e7e" fill="none" d="M.0,.0L505.8,.0M505.8,-15.1L.0,-15.1M.0,.0L.0,-7.6L.0,-15.1M505.8,.0L505.8,-7.6L505.8,-15.1"/></g><g transform="matrix(0.999999,-0.001319,0.001319,0.999999,378.349936,216.141061)" id="shape12"><path fill="#ffffff" d="M.0,.0L52.9,.0L52.9,15.1L.0,15.1L.0,.0zM.0,.0L.0,15.1L-5.0,15.1L-5.0,.0L.0,.0zM52.9,.0L52.9,15.1L57.9,15.1L57.9,.0L52.9,.0zM52.9,.0L52.9,-52.9L47.9,-52.9L47.9,.0L52.9,.0z" fill-rule="nonzero"/><path stroke-width="1" stroke="#303030" fill="none" d="M.0,.0C.0,-29.2,23.7,-52.9,52.9,-52.9M.0,.0L.0,15.1L-5.0,15.1L-5.0,.0L.0,.0zM52.9,.0L52.9,15.1L57.9,15.1L57.9,.0L52.9,.0zM52.9,.0L52.9,-52.9L47.9,-52.9L47.9,.0L52.9,.0z"/></g><g transform="matrix(1.000000,0.000000,-0.000000,1.000000,697.882059,216.270597)" id="shape13"><path fill="#ffffff" d="M.0,15.1L154.8,15.1L154.8,.0L.0,.0L.0,15.1zM.0,.0L.0,15.1L-8.0,15.1L-8.0,.0L.0,.0zM154.8,.0L154.8,15.1L162.8,15.1L162.8,.0L154.8,.0z" fill-rule="nonzero"/><path stroke-width="1" stroke="#303030" fill="none" d="M.0,.0L.0,15.1L-8.0,15.1L-8.0,.0L.0,.0zM154.8,.0L154.8,15.1L162.8,15.1L162.8,.0L154.8,.0zM6.0,4.6L6.0,10.6L.0,10.6L.0,4.6L6.0,4.6zM148.8,4.6L148.8,10.6L154.8,10.6L154.8,4.6L148.8,4.6zM6.0,7.6L148.8,7.6"/></g><g transform="matrix(-0.011353,0.999936,-0.999936,-0.011353,179.462387,47.737766)" id="shape14"><path fill="#ffffff" d="M.0,15.1L98.3,15.1L98.3,.0L.0,.0L.0,15.1zM.0,.0L.0,15.1L-8.0,15.1L-8.0,.0L.0,.0zM98.3,.0L98.3,15.1L106.3,15.1L106.3,.0L98.3,.0z" fill-rule="nonzero"/><path stroke-width="1" stroke="#303030" fill="none" d="M.0,.0L.0,15.1L-8.0,15.1L-8.0,.0L.0,.0zM98.3,.0L98.3,15.1L106.3,15.1L106.3,.0L98.3,.0zM6.0,4.6L6.0,10.6L.0,10.6L.0,4.6L6.0,4.6zM92.3,4.6L92.3,10.6L98.3,10.6L98.3,4.6L92.3,4.6zM6.0,7.6L92.3,7.6"/></g><g transform="matrix(-0.999999,-0.001255,-0.001255,0.999999,509.334833,216.136845)" id="shape15"><path fill="#ffffff" d="M.0,.0L52.9,.0L52.9,15.1L.0,15.1L.0,.0zM.0,.0L.0,15.1L-5.0,15.1L-5.0,.0L.0,.0zM52.9,.0L52.9,15.1L57.9,15.1L57.9,.0L52.9,.0zM52.9,.0L52.9,-52.9L47.9,-52.9L47.9,.0L52.9,.0z" fill-rule="nonzero"/><path stroke-width="1" stroke="#303030" fill="none" d="M.0,.0C.0,-29.2,23.7,-52.9,52.9,-52.9M.0,.0L.0,15.1L-5.0,15.1L-5.0,.0L.0,.0zM52.9,.0L52.9,15.1L57.9,15.1L57.9,.0L52.9,.0zM52.9,.0L52.9,-52.9L47.9,-52.9L47.9,.0L52.9,.0z"/></g><g transform="translate(55.882104,216.420062)" id="shape16"><path fill="#ffffff" d="M.0,15.1L98.3,15.1L98.3,.0L.0,.0L.0,15.1zM.0,.0L.0,15.1L-8.0,15.1L-8.0,.0L.0,.0zM98.3,.0L98.3,15.1L106.3,15.1L106.3,.0L98.3,.0z" fill-rule="nonzero"/><path stroke-width="1" stroke="#303030" fill="none" d="M.0,.0L.0,15.1L-8.0,15.1L-8.0,.0L.0,.0zM98.3,.0L98.3,15.1L106.3,15.1L106.3,.0L98.3,.0zM6.0,4.6L6.0,10.6L.0,10.6L.0,4.6L6.0,4.6zM92.3,4.6L92.3,10.6L98.3,10.6L98.3,4.6L92.3,4.6zM6.0,7.6L92.3,7.6"/></g><g transform="matrix(-1.000000,0.000000,0.000000,1.000000,95.503927,483.748855)" id="shape17"><path fill="#ffffff" d="M.0,.0L75.4,.0L75.4,15.1L.0,15.1L.0,.0zM.0,.0L.0,15.1L-5.0,15.1L-5.0,.0L.0,.0zM75.4,.0L75.4,15.1L80.4,15.1L80.4,.0L75.4,.0zM75.4,.0L75.4,-75.4L70.4,-75.4L70.4,.0L75.4,.0z" fill-rule="nonzero"/><path stroke-width="1" stroke="#303030" fill="none" d="M.0,.0C.0,-41.6,33.8,-75.4,75.4,-75.4M.0,.0L.0,15.1L-5.0,15.1L-5.0,.0L.0,.0zM75.4,.0L75.4,15.1L80.4,15.1L80.4,.0L75.4,.0zM75.4,.0L75.4,-75.4L70.4,-75.4L70.4,.0L75.4,.0z"/></g><g transform="translate(373.349941,260.979112)" id="group18"><path stroke-width="1" transform="translate(22.055435,41.338058)" stroke="#2c2c2c" fill="none" d="M.0,60.7C.0,27.2,27.6,.0,61.7,.0C95.8,.0,123.4,27.2,123.4,60.7C123.4,94.3,95.8,121.5,61.7,121.5C27.6,121.5,.0,94.3,.0,60.7z" id="shape19"/><path stroke-width="1" transform="translate(0.000000,19.626644)" stroke="#2c2c2c" fill="none" d="M.0,82.5C.0,36.9,37.5,.0,83.8,.0C130.0,.0,167.5,36.9,167.5,82.5C167.5,128.0,130.0,164.9,83.8,164.9C37.5,164.9,.0,128.0,.0,82.5z" id="shape20"/><g transform="translate(5.992205,25.580199)" id="group21"><path stroke-width="1" transform="translate(100.347418,0.000000)" stroke="#2c2c2c" fill="#ffffff" d="M.0,20.2L8.7,.0C8.7,.0,41.1,11.2,54.8,45.0L34.4,53.2C34.4,53.2,25.3,29.5,.0,20.2z" id="shape22" fill-rule="nonzero"/><path stroke-width="1" stroke="#2c2c2c" fill="#ffffff" d="M54.8,20.2L46.1,.0C46.1,.0,13.7,11.2,.0,45.0L20.4,53.2C20.4,53.2,29.5,29.5,54.8,20.2z" id="shape23" fill-rule="nonzero"/><path stroke-width="1" transform="translate(0.000000,99.859387)" stroke="#2c2c2c" fill="#ffffff" d="M54.8,33.0L46.1,53.2C46.1,53.2,13.7,42.0,.0,8.2L20.4,.0C20.4,.0,29.5,23.6,54.8,33.0z" id="shape24" fill-rule="nonzero"/><path stroke-width="1" transform="translate(100.347418,99.859387)" stroke="#2c2c2c" fill="#ffffff" d="M.0,33.0L8.7,53.2C8.7,53.2,41.1,42.0,54.8,8.2L34.4,.0C34.4,.0,25.3,23.6,.0,33.0z" id="shape25" fill-rule="nonzero"/></g><path stroke-width="1" transform="translate(39.485393,0.000000)" stroke="#2c2c2c" fill="#ffffff" d="M.0,189.9L44.3,.0L88.6,189.9L44.3,162.6L.0,189.9z" id="shape26" fill-rule="nonzero"/><path transform="translate(68.622661,94.934674)" fill="#505050" d="M.0,37.7L.0,.0L7.5,.0L23.1,25.2L23.1,.0L30.3,.0L30.3,37.7L22.6,37.7L7.2,13.1L7.2,37.7L.0,37.7z" id="shape27" fill-rule="nonzero"/></g></g><g transform="matrix(0.000000,1.000000,-1.000000,0.000000,1009.036609,412.496046)" id="shape28"><path fill="#ebebeb" d="M.0,.0L187.0,.0L187.0,92.0L.0,92.0L.0,.0z" fill-rule="nonzero"/><path stroke-width="1" stroke="#7e7e7e" fill="none" d="M.0,.0L.0,92.0L187.0,92.0L187.0,.0"/></g><path stroke-width="1" transform="matrix(0.000000,1.000000,-1.000000,0.000000,993.000000,149.500000)" stroke="#000000" fill="#ffffff" d="M.0,22.0L15.5,22.0L15.5,.0L.0,.0L.0,22.0z" id="shape29" fill-rule="nonzero"/></g></svg>